<svg width="375" height="321" viewBox="0 0 375 321" fill="none" xmlns="http://www.w3.org/2000/svg">
<rect width="375" height="320" transform="translate(0 0.106567)" fill="#FAFAFA"/>
<path d="M34.3554 117.251C34.4034 116.975 34.5234 116.591 34.7274 116.051L37.2954 109.127C37.5834 108.335 37.7274 107.999 37.8954 107.699H35.9154C35.8554 108.107 35.7834 108.359 35.5914 108.959L33.5994 114.887C33.5274 115.103 33.4314 115.439 33.3234 115.799C33.2394 115.511 33.0954 115.031 33.0354 114.887L31.0434 108.959C30.8994 108.527 30.7794 108.095 30.7194 107.699H28.7394C28.9074 108.023 29.0754 108.407 29.3394 109.127L31.9074 116.051C32.1114 116.615 32.2434 116.987 32.2914 117.251H34.3554ZM44.6199 114.203C44.5959 113.927 44.5959 113.891 44.5959 113.867C44.5599 113.051 44.4759 112.619 44.2479 112.043C43.7679 110.843 42.6639 110.147 41.2599 110.147C39.2079 110.147 37.8759 111.599 37.8759 113.819C37.8759 116.063 39.2199 117.479 41.3439 117.479C42.3519 117.479 43.1919 117.167 43.8159 116.555C44.1159 116.255 44.2719 116.027 44.5479 115.451L43.1319 114.995C43.0119 115.319 42.9279 115.451 42.7839 115.619C42.4359 116.003 41.9319 116.219 41.3439 116.219C40.7319 116.219 40.1919 115.979 39.8439 115.547C39.5679 115.199 39.4599 114.863 39.3999 114.203H44.6199ZM39.4359 113.015C39.6159 112.007 40.2999 111.383 41.2359 111.383C41.7999 111.383 42.2079 111.539 42.5319 111.863C42.8319 112.163 42.9759 112.487 43.0599 113.015H39.4359ZM45.8165 107.699C45.8765 108.179 45.9005 108.551 45.9005 109.271V115.691C45.9005 116.375 45.8765 116.735 45.8045 117.251H47.5325C47.4605 116.735 47.4365 116.279 47.4365 115.691V113.267C47.9765 112.067 48.6725 111.491 49.5725 111.491C49.8965 111.491 50.1845 111.611 50.4005 111.839C50.6285 112.079 50.7485 112.475 50.7485 113.027V115.691C50.7485 116.303 50.7245 116.711 50.6645 117.251H52.4045C52.3325 116.807 52.3085 116.351 52.3085 115.691V112.667C52.3085 111.119 51.4325 110.243 49.8965 110.243C48.8045 110.243 48.1565 110.579 47.4125 111.515C47.4365 111.215 47.4365 111.155 47.4365 110.999V109.283C47.4365 108.599 47.4605 108.155 47.5205 107.699H45.8165ZM53.8788 107.699V109.223H55.6428V107.699H53.8788ZM53.8788 110.363C53.9508 110.855 53.9748 111.263 53.9748 111.923V115.691C53.9748 116.291 53.9508 116.711 53.8788 117.251H55.6308C55.5708 116.747 55.5468 116.339 55.5468 115.679V111.935C55.5468 111.203 55.5708 110.807 55.6308 110.363H53.8788ZM63.3886 112.319C63.2206 111.875 63.1246 111.683 62.9686 111.443C62.3926 110.603 61.4566 110.147 60.2806 110.147C59.2966 110.147 58.4566 110.459 57.8686 111.059C57.2086 111.731 56.8486 112.703 56.8486 113.831C56.8486 116.051 58.2166 117.479 60.3286 117.479C61.4686 117.479 62.3926 117.059 62.9686 116.267C63.1846 115.979 63.3046 115.727 63.4726 115.247L61.9846 114.947C61.9126 115.247 61.8526 115.379 61.7446 115.547C61.4446 115.979 60.9646 116.219 60.3646 116.219C59.1526 116.219 58.4086 115.295 58.4086 113.795C58.4086 112.307 59.1406 111.383 60.3166 111.383C60.8446 111.383 61.2646 111.575 61.5526 111.935C61.7086 112.127 61.7926 112.295 61.9246 112.667L63.3886 112.319ZM64.6366 107.699C64.6966 108.155 64.7206 108.539 64.7206 109.259V115.691C64.7206 116.387 64.6966 116.735 64.6366 117.251H66.3766C66.3166 116.723 66.2926 116.327 66.2926 115.691V109.271C66.2926 108.551 66.3166 108.167 66.3766 107.699H64.6366ZM74.3504 114.203C74.3264 113.927 74.3264 113.891 74.3264 113.867C74.2904 113.051 74.2064 112.619 73.9784 112.043C73.4984 110.843 72.3944 110.147 70.9904 110.147C68.9384 110.147 67.6064 111.599 67.6064 113.819C67.6064 116.063 68.9504 117.479 71.0744 117.479C72.0824 117.479 72.9224 117.167 73.5464 116.555C73.8464 116.255 74.0024 116.027 74.2784 115.451L72.8624 114.995C72.7424 115.319 72.6584 115.451 72.5144 115.619C72.1664 116.003 71.6624 116.219 71.0744 116.219C70.4624 116.219 69.9224 115.979 69.5744 115.547C69.2984 115.199 69.1904 114.863 69.1304 114.203H74.3504ZM69.1664 113.015C69.3464 112.007 70.0304 111.383 70.9664 111.383C71.5304 111.383 71.9384 111.539 72.2624 111.863C72.5624 112.163 72.7064 112.487 72.7904 113.015H69.1664ZM86.0831 114.035C85.9871 114.587 85.8911 114.839 85.6871 115.139C85.3031 115.703 84.5831 116.027 83.7431 116.027C82.0631 116.027 81.0071 114.659 81.0071 112.463C81.0071 110.255 82.0391 108.923 83.7431 108.923C84.4871 108.923 85.0871 109.175 85.4951 109.667C85.7351 109.943 85.8431 110.171 86.0111 110.699L87.6791 110.315C87.5351 109.859 87.4511 109.643 87.3071 109.391C87.0071 108.863 86.5751 108.419 86.0351 108.083C85.3751 107.687 84.6671 107.507 83.7311 107.507C82.5311 107.507 81.4511 107.915 80.7311 108.647C79.8311 109.547 79.3271 110.939 79.3271 112.523C79.3271 114.059 79.7951 115.415 80.6351 116.291C81.3671 117.047 82.4111 117.443 83.7191 117.443C85.1591 117.443 86.3111 116.975 86.9951 116.135C87.3551 115.667 87.5711 115.199 87.7991 114.335L86.0831 114.035ZM89.0467 107.699C89.1067 108.155 89.1307 108.539 89.1307 109.259V115.691C89.1307 116.387 89.1067 116.735 89.0467 117.251H90.7867C90.7267 116.723 90.7027 116.327 90.7027 115.691V109.271C90.7027 108.551 90.7267 108.167 90.7867 107.699H89.0467ZM96.8645 117.251H98.4845C98.4125 116.711 98.3885 116.387 98.3885 115.751V112.523C98.3885 111.707 98.2325 111.251 97.8245 110.867C97.3085 110.363 96.6125 110.159 95.4605 110.159C94.4285 110.159 93.7565 110.339 93.1685 110.771C92.7125 111.095 92.4965 111.407 92.2205 112.103L93.7565 112.379C93.9005 111.947 94.0085 111.779 94.2365 111.611C94.5125 111.395 95.0045 111.263 95.4845 111.263C96.3965 111.263 96.8645 111.623 96.8645 112.319V112.931C95.1485 112.967 94.2605 113.087 93.4805 113.411C92.6525 113.759 92.1245 114.515 92.1245 115.355C92.1245 116.615 93.0125 117.371 94.4765 117.371C94.8605 117.371 95.2445 117.323 95.5925 117.227C96.0845 117.095 96.3845 116.927 96.8645 116.471V117.251ZM96.8645 114.575C96.8645 114.995 96.7205 115.343 96.4325 115.631C96.0245 116.027 95.4005 116.267 94.7645 116.267C94.0925 116.267 93.6725 115.919 93.6725 115.355C93.6725 114.419 94.5725 114.023 96.8645 113.975V114.575ZM99.61 115.295C99.754 115.835 99.862 116.075 100.078 116.363C100.594 117.059 101.518 117.431 102.754 117.431C103.846 117.431 104.686 117.167 105.238 116.651C105.598 116.315 105.826 115.787 105.826 115.295C105.826 114.635 105.598 114.143 105.13 113.807C104.734 113.507 104.242 113.339 103.018 113.075C102.334 112.919 102.082 112.847 101.818 112.715C101.578 112.583 101.446 112.379 101.446 112.151C101.446 111.647 101.95 111.311 102.694 111.311C103.474 111.311 103.882 111.599 104.014 112.259L105.598 112.055C105.43 111.467 105.262 111.167 104.95 110.867C104.458 110.411 103.678 110.171 102.694 110.171C101.602 110.171 100.786 110.483 100.294 111.107C100.054 111.407 99.922 111.803 99.922 112.223C99.922 112.919 100.294 113.495 100.978 113.819C101.386 114.011 101.758 114.131 102.706 114.335C103.666 114.551 103.738 114.563 103.966 114.719C104.158 114.851 104.278 115.079 104.278 115.319C104.278 115.883 103.726 116.231 102.838 116.231C101.902 116.231 101.458 115.907 101.254 115.091L99.61 115.295ZM106.723 115.295C106.867 115.835 106.975 116.075 107.191 116.363C107.707 117.059 108.631 117.431 109.867 117.431C110.959 117.431 111.799 117.167 112.351 116.651C112.711 116.315 112.939 115.787 112.939 115.295C112.939 114.635 112.711 114.143 112.243 113.807C111.847 113.507 111.355 113.339 110.131 113.075C109.447 112.919 109.195 112.847 108.931 112.715C108.691 112.583 108.559 112.379 108.559 112.151C108.559 111.647 109.063 111.311 109.807 111.311C110.587 111.311 110.995 111.599 111.127 112.259L112.711 112.055C112.543 111.467 112.375 111.167 112.063 110.867C111.571 110.411 110.791 110.171 109.807 110.171C108.715 110.171 107.899 110.483 107.407 111.107C107.167 111.407 107.035 111.803 107.035 112.223C107.035 112.919 107.407 113.495 108.091 113.819C108.499 114.011 108.871 114.131 109.819 114.335C110.779 114.551 110.851 114.563 111.079 114.719C111.271 114.851 111.391 115.079 111.391 115.319C111.391 115.883 110.839 116.231 109.951 116.231C109.015 116.231 108.571 115.907 108.367 115.091L106.723 115.295Z" fill="black"/>
<rect x="28" y="128.107" width="86" height="86" rx="2.86667" fill="#C6D2E5"/>
<rect x="32.7781" y="132.885" width="76.4445" height="76.4445" stroke="#ACBEDB"/>
<rect x="32.7781" y="132.885" width="76.4445" height="9.55556" stroke="#ACBEDB" stroke-width="0.5"/>
<rect x="32.7779" y="142.44" width="76.4445" height="9.55556" stroke="#ACBEDB" stroke-width="0.5"/>
<rect x="32.7779" y="151.996" width="76.4445" height="9.55556" stroke="#ACBEDB" stroke-width="0.5"/>
<rect x="32.7779" y="161.551" width="76.4445" height="9.55556" stroke="#ACBEDB" stroke-width="0.5"/>
<rect x="32.7779" y="171.107" width="76.4445" height="9.55556" stroke="#ACBEDB" stroke-width="0.5"/>
<rect x="32.7779" y="180.662" width="76.4445" height="9.55556" stroke="#ACBEDB" stroke-width="0.5"/>
<rect x="32.7779" y="190.218" width="76.4445" height="9.55556" stroke="#ACBEDB" stroke-width="0.5"/>
<rect x="99.6667" y="132.884" width="9.55556" height="76.4445" stroke="#ACBEDB" stroke-width="0.5"/>
<rect x="90.1112" y="132.884" width="9.55556" height="76.4445" stroke="#ACBEDB" stroke-width="0.5"/>
<rect x="80.5555" y="132.884" width="9.55556" height="76.4445" stroke="#ACBEDB" stroke-width="0.5"/>
<rect x="71.0002" y="132.884" width="9.55556" height="76.4445" stroke="#ACBEDB" stroke-width="0.5"/>
<rect x="61.4445" y="132.884" width="9.55556" height="76.4445" stroke="#ACBEDB" stroke-width="0.5"/>
<rect x="51.8891" y="132.884" width="9.55556" height="76.4445" stroke="#ACBEDB" stroke-width="0.5"/>
<rect x="42.3333" y="132.884" width="9.55556" height="76.4445" stroke="#ACBEDB" stroke-width="0.5"/>
<circle cx="51.8892" cy="180.662" r="6" stroke="#003180" stroke-width="2.5"/>
<circle cx="90.1111" cy="180.662" r="6" stroke="#003180" stroke-width="2.5"/>
<path d="M96.1111 180.662H95.6111V181.162H96.1111V180.662ZM84.1111 180.662V181.162H84.6111V180.662H84.1111ZM57.8892 180.662L57.3892 180.662L57.3892 181.162H57.8892V180.662ZM45.8892 180.662V181.162H46.3892L46.3892 180.662L45.8892 180.662ZM40.4224 151.495C38.563 151.495 37.0557 153.003 37.0557 154.862H38.0557C38.0557 153.555 39.1153 152.495 40.4224 152.495V151.495ZM101.578 151.495H40.4224V152.495H101.578V151.495ZM104.945 154.862C104.945 153.003 103.437 151.495 101.578 151.495V152.495C102.885 152.495 103.945 153.555 103.945 154.862H104.945ZM104.945 177.795V154.862H103.945V177.795H104.945ZM101.578 181.162C103.437 181.162 104.945 179.655 104.945 177.795H103.945C103.945 179.102 102.885 180.162 101.578 180.162V181.162ZM96.1111 181.162H101.578V180.162H96.1111V181.162ZM90.1111 175.162C93.1487 175.162 95.6111 177.624 95.6111 180.662H96.6111C96.6111 177.072 93.701 174.162 90.1111 174.162V175.162ZM84.6111 180.662C84.6111 177.624 87.0736 175.162 90.1111 175.162V174.162C86.5213 174.162 83.6111 177.072 83.6111 180.662H84.6111ZM57.8892 181.162H84.1111V180.162H57.8892V181.162ZM51.8892 175.162C54.9267 175.162 57.3891 177.625 57.3892 180.662L58.3892 180.662C58.389 177.072 55.479 174.162 51.8892 174.162V175.162ZM46.3892 180.662C46.3894 177.625 48.8518 175.162 51.8892 175.162V174.162C48.2995 174.162 45.3894 177.072 45.3892 180.662L46.3892 180.662ZM40.4224 181.162H45.8892V180.162H40.4224V181.162ZM37.0557 177.795C37.0557 179.655 38.563 181.162 40.4224 181.162V180.162C39.1153 180.162 38.0557 179.102 38.0557 177.795H37.0557ZM37.0557 154.862V177.795H38.0557V154.862H37.0557Z" fill="#003180"/>
<path d="M170.982 35.0346C170.886 35.5866 170.79 35.8386 170.586 36.1386C170.202 36.7026 169.482 37.0266 168.642 37.0266C166.962 37.0266 165.906 35.6586 165.906 33.4626C165.906 31.2546 166.938 29.9226 168.642 29.9226C169.386 29.9226 169.986 30.1746 170.394 30.6666C170.634 30.9426 170.742 31.1706 170.91 31.6986L172.578 31.3146C172.434 30.8586 172.35 30.6426 172.206 30.3906C171.906 29.8626 171.474 29.4186 170.934 29.0826C170.274 28.6866 169.566 28.5066 168.63 28.5066C167.43 28.5066 166.35 28.9146 165.63 29.6466C164.73 30.5466 164.226 31.9386 164.226 33.5226C164.226 35.0586 164.694 36.4146 165.534 37.2906C166.266 38.0466 167.31 38.4426 168.618 38.4426C170.058 38.4426 171.21 37.9746 171.894 37.1346C172.254 36.6666 172.47 36.1986 172.698 35.3346L170.982 35.0346ZM178.505 38.2506H180.125C180.053 37.7106 180.029 37.3866 180.029 36.7506V33.5226C180.029 32.7066 179.873 32.2506 179.465 31.8666C178.949 31.3626 178.253 31.1586 177.101 31.1586C176.069 31.1586 175.397 31.3386 174.809 31.7706C174.353 32.0946 174.137 32.4066 173.861 33.1026L175.397 33.3786C175.541 32.9466 175.649 32.7786 175.877 32.6106C176.153 32.3946 176.645 32.2626 177.125 32.2626C178.037 32.2626 178.505 32.6226 178.505 33.3186V33.9306C176.789 33.9666 175.901 34.0866 175.121 34.4106C174.293 34.7586 173.765 35.5146 173.765 36.3546C173.765 37.6146 174.653 38.3706 176.117 38.3706C176.501 38.3706 176.885 38.3226 177.233 38.2266C177.725 38.0946 178.025 37.9266 178.505 37.4706V38.2506ZM178.505 35.5746C178.505 35.9946 178.361 36.3426 178.073 36.6306C177.665 37.0266 177.041 37.2666 176.405 37.2666C175.733 37.2666 175.313 36.9186 175.313 36.3546C175.313 35.4186 176.213 35.0226 178.505 34.9746V35.5746ZM186.579 31.3626C186.039 31.2666 185.751 31.2306 185.463 31.2306C184.383 31.2306 183.639 31.6386 183.207 32.4906V31.3626H181.575C181.647 31.8546 181.659 32.1906 181.659 32.9226V36.6906C181.659 37.3146 181.635 37.6626 181.575 38.2506H183.291C183.231 37.6866 183.207 37.3386 183.207 36.6906V34.4706C183.279 33.8946 183.399 33.6186 183.699 33.2706C184.035 32.8746 184.491 32.6826 185.091 32.6826C185.403 32.6826 185.655 32.7306 186.159 32.8746L186.579 31.3626ZM198.005 35.0346C197.909 35.5866 197.813 35.8386 197.609 36.1386C197.225 36.7026 196.505 37.0266 195.665 37.0266C193.985 37.0266 192.929 35.6586 192.929 33.4626C192.929 31.2546 193.961 29.9226 195.665 29.9226C196.409 29.9226 197.009 30.1746 197.417 30.6666C197.657 30.9426 197.765 31.1706 197.933 31.6986L199.601 31.3146C199.457 30.8586 199.373 30.6426 199.229 30.3906C198.929 29.8626 198.497 29.4186 197.957 29.0826C197.297 28.6866 196.589 28.5066 195.653 28.5066C194.453 28.5066 193.373 28.9146 192.653 29.6466C191.753 30.5466 191.249 31.9386 191.249 33.5226C191.249 35.0586 191.717 36.4146 192.557 37.2906C193.289 38.0466 194.333 38.4426 195.641 38.4426C197.081 38.4426 198.233 37.9746 198.917 37.1346C199.277 36.6666 199.493 36.1986 199.721 35.3346L198.005 35.0346ZM200.969 28.6986C201.029 29.1546 201.053 29.5386 201.053 30.2586V36.6906C201.053 37.3866 201.029 37.7346 200.969 38.2506H202.709C202.649 37.7226 202.625 37.3266 202.625 36.6906V30.2706C202.625 29.5506 202.649 29.1666 202.709 28.6986H200.969ZM208.786 38.2506H210.406C210.334 37.7106 210.31 37.3866 210.31 36.7506V33.5226C210.31 32.7066 210.154 32.2506 209.746 31.8666C209.23 31.3626 208.534 31.1586 207.382 31.1586C206.35 31.1586 205.678 31.3386 205.09 31.7706C204.634 32.0946 204.418 32.4066 204.142 33.1026L205.678 33.3786C205.822 32.9466 205.93 32.7786 206.158 32.6106C206.434 32.3946 206.926 32.2626 207.406 32.2626C208.318 32.2626 208.786 32.6226 208.786 33.3186V33.9306C207.07 33.9666 206.182 34.0866 205.402 34.4106C204.574 34.7586 204.046 35.5146 204.046 36.3546C204.046 37.6146 204.934 38.3706 206.398 38.3706C206.782 38.3706 207.166 38.3226 207.514 38.2266C208.006 38.0946 208.306 37.9266 208.786 37.4706V38.2506ZM208.786 35.5746C208.786 35.9946 208.642 36.3426 208.354 36.6306C207.946 37.0266 207.322 37.2666 206.686 37.2666C206.014 37.2666 205.594 36.9186 205.594 36.3546C205.594 35.4186 206.494 35.0226 208.786 34.9746V35.5746ZM211.532 36.2946C211.676 36.8346 211.784 37.0746 212 37.3626C212.516 38.0586 213.44 38.4306 214.676 38.4306C215.768 38.4306 216.608 38.1666 217.16 37.6506C217.52 37.3146 217.748 36.7866 217.748 36.2946C217.748 35.6346 217.52 35.1426 217.052 34.8066C216.656 34.5066 216.164 34.3386 214.94 34.0746C214.256 33.9186 214.004 33.8466 213.74 33.7146C213.5 33.5826 213.368 33.3786 213.368 33.1506C213.368 32.6466 213.872 32.3106 214.616 32.3106C215.396 32.3106 215.804 32.5986 215.936 33.2586L217.52 33.0546C217.352 32.4666 217.184 32.1666 216.872 31.8666C216.38 31.4106 215.6 31.1706 214.616 31.1706C213.524 31.1706 212.708 31.4826 212.216 32.1066C211.976 32.4066 211.844 32.8026 211.844 33.2226C211.844 33.9186 212.216 34.4946 212.9 34.8186C213.308 35.0106 213.68 35.1306 214.628 35.3346C215.588 35.5506 215.66 35.5626 215.888 35.7186C216.08 35.8506 216.2 36.0786 216.2 36.3186C216.2 36.8826 215.648 37.2306 214.76 37.2306C213.824 37.2306 213.38 36.9066 213.176 36.0906L211.532 36.2946ZM218.645 36.2946C218.789 36.8346 218.897 37.0746 219.113 37.3626C219.629 38.0586 220.553 38.4306 221.789 38.4306C222.881 38.4306 223.721 38.1666 224.273 37.6506C224.633 37.3146 224.861 36.7866 224.861 36.2946C224.861 35.6346 224.633 35.1426 224.165 34.8066C223.769 34.5066 223.277 34.3386 222.053 34.0746C221.369 33.9186 221.117 33.8466 220.853 33.7146C220.613 33.5826 220.481 33.3786 220.481 33.1506C220.481 32.6466 220.985 32.3106 221.729 32.3106C222.509 32.3106 222.917 32.5986 223.049 33.2586L224.633 33.0546C224.465 32.4666 224.297 32.1666 223.985 31.8666C223.493 31.4106 222.713 31.1706 221.729 31.1706C220.637 31.1706 219.821 31.4826 219.329 32.1066C219.089 32.4066 218.957 32.8026 218.957 33.2226C218.957 33.9186 219.329 34.4946 220.013 34.8186C220.421 35.0106 220.793 35.1306 221.741 35.3346C222.701 35.5506 222.773 35.5626 223.001 35.7186C223.193 35.8506 223.313 36.0786 223.313 36.3186C223.313 36.8826 222.761 37.2306 221.873 37.2306C220.937 37.2306 220.493 36.9066 220.289 36.0906L218.645 36.2946Z" fill="black"/>
<path d="M283.845 35.0346C283.749 35.5866 283.653 35.8386 283.449 36.1386C283.065 36.7026 282.345 37.0266 281.505 37.0266C279.825 37.0266 278.769 35.6586 278.769 33.4626C278.769 31.2546 279.801 29.9226 281.505 29.9226C282.249 29.9226 282.849 30.1746 283.257 30.6666C283.497 30.9426 283.605 31.1706 283.773 31.6986L285.441 31.3146C285.297 30.8586 285.213 30.6426 285.069 30.3906C284.769 29.8626 284.337 29.4186 283.797 29.0826C283.137 28.6866 282.429 28.5066 281.493 28.5066C280.293 28.5066 279.213 28.9146 278.493 29.6466C277.593 30.5466 277.089 31.9386 277.089 33.5226C277.089 35.0586 277.557 36.4146 278.397 37.2906C279.129 38.0466 280.173 38.4426 281.481 38.4426C282.921 38.4426 284.073 37.9746 284.757 37.1346C285.117 36.6666 285.333 36.1986 285.561 35.3346L283.845 35.0346ZM291.369 38.2506H292.989C292.917 37.7106 292.893 37.3866 292.893 36.7506V33.5226C292.893 32.7066 292.737 32.2506 292.329 31.8666C291.813 31.3626 291.117 31.1586 289.965 31.1586C288.933 31.1586 288.261 31.3386 287.673 31.7706C287.217 32.0946 287.001 32.4066 286.725 33.1026L288.261 33.3786C288.405 32.9466 288.513 32.7786 288.741 32.6106C289.017 32.3946 289.509 32.2626 289.989 32.2626C290.901 32.2626 291.369 32.6226 291.369 33.3186V33.9306C289.653 33.9666 288.765 34.0866 287.985 34.4106C287.157 34.7586 286.629 35.5146 286.629 36.3546C286.629 37.6146 287.517 38.3706 288.981 38.3706C289.365 38.3706 289.749 38.3226 290.097 38.2266C290.589 38.0946 290.889 37.9266 291.369 37.4706V38.2506ZM291.369 35.5746C291.369 35.9946 291.225 36.3426 290.937 36.6306C290.529 37.0266 289.905 37.2666 289.269 37.2666C288.597 37.2666 288.177 36.9186 288.177 36.3546C288.177 35.4186 289.077 35.0226 291.369 34.9746V35.5746ZM299.442 31.3626C298.902 31.2666 298.614 31.2306 298.326 31.2306C297.246 31.2306 296.502 31.6386 296.07 32.4906V31.3626H294.438C294.51 31.8546 294.522 32.1906 294.522 32.9226V36.6906C294.522 37.3146 294.498 37.6626 294.438 38.2506H296.154C296.094 37.6866 296.07 37.3386 296.07 36.6906V34.4706C296.142 33.8946 296.262 33.6186 296.562 33.2706C296.898 32.8746 297.354 32.6826 297.954 32.6826C298.266 32.6826 298.518 32.7306 299.022 32.8746L299.442 31.3626ZM308.577 28.5066C307.305 28.5066 306.309 28.8906 305.481 29.7066C304.593 30.5706 304.113 31.9026 304.113 33.4506C304.113 36.4986 305.865 38.4546 308.589 38.4546C311.313 38.4546 313.077 36.4866 313.077 33.4506C313.077 31.8906 312.609 30.5826 311.733 29.7066C310.917 28.8906 309.897 28.5066 308.577 28.5066ZM308.613 37.0266C307.881 37.0266 307.245 36.7746 306.753 36.2946C306.129 35.6706 305.781 34.6626 305.781 33.4626C305.781 31.2906 306.873 29.9226 308.601 29.9226C309.321 29.9226 309.957 30.1746 310.449 30.6546C311.061 31.2666 311.397 32.2386 311.397 33.4506C311.397 35.6586 310.329 37.0266 308.613 37.0266ZM315.967 38.2506V37.6626C315.967 37.5186 315.967 37.3866 315.955 37.2306C316.555 38.0706 317.239 38.4186 318.343 38.4186C319.315 38.4186 320.083 38.1306 320.647 37.5546C321.295 36.8826 321.631 35.9226 321.631 34.7466C321.631 32.5146 320.443 31.2066 318.427 31.2066C317.323 31.2066 316.579 31.5786 315.955 32.4186C315.967 32.0106 315.979 31.7106 315.979 31.5186V30.3186C315.979 29.5986 316.003 29.2026 316.063 28.6986H314.371C314.431 29.2746 314.455 29.6946 314.455 30.3066V36.6306C314.455 37.3386 314.431 37.7226 314.371 38.2506H315.967ZM320.071 34.7466C320.071 36.1986 319.291 37.1346 318.079 37.1346C317.635 37.1346 317.167 36.9666 316.819 36.6906C316.339 36.3066 316.027 35.5506 316.027 34.7946C316.027 34.1706 316.255 33.5226 316.615 33.1266C317.011 32.6946 317.575 32.4666 318.247 32.4666C319.351 32.4666 320.071 33.3666 320.071 34.7466ZM323.252 31.3626C323.324 31.8186 323.348 32.2266 323.348 32.9226V38.5746C323.348 39.1386 323.108 39.4026 322.604 39.4026C322.208 39.4026 321.944 39.2106 321.728 38.8026L320.36 39.5946C320.624 39.9306 320.78 40.0746 321.068 40.2426C321.488 40.4826 321.98 40.6026 322.556 40.6026C323.228 40.6026 323.828 40.4346 324.224 40.1466C324.692 39.7986 324.908 39.3066 324.908 38.5986V32.9226C324.908 32.2266 324.92 31.8786 324.992 31.3626H323.252ZM323.252 28.6986V30.2226H325.016V28.6986H323.252ZM333.003 35.2026C332.979 34.9266 332.979 34.8906 332.979 34.8666C332.943 34.0506 332.859 33.6186 332.631 33.0426C332.151 31.8426 331.047 31.1466 329.643 31.1466C327.591 31.1466 326.259 32.5986 326.259 34.8186C326.259 37.0626 327.603 38.4786 329.727 38.4786C330.735 38.4786 331.575 38.1666 332.199 37.5546C332.499 37.2546 332.655 37.0266 332.931 36.4506L331.515 35.9946C331.395 36.3186 331.311 36.4506 331.167 36.6186C330.819 37.0026 330.315 37.2186 329.727 37.2186C329.115 37.2186 328.575 36.9786 328.227 36.5466C327.951 36.1986 327.843 35.8626 327.783 35.2026H333.003ZM327.819 34.0146C327.999 33.0066 328.683 32.3826 329.619 32.3826C330.183 32.3826 330.591 32.5386 330.915 32.8626C331.215 33.1626 331.359 33.4866 331.443 34.0146H327.819ZM340.44 33.3186C340.272 32.8746 340.176 32.6826 340.02 32.4426C339.444 31.6026 338.508 31.1466 337.332 31.1466C336.348 31.1466 335.508 31.4586 334.92 32.0586C334.26 32.7306 333.9 33.7026 333.9 34.8306C333.9 37.0506 335.268 38.4786 337.38 38.4786C338.52 38.4786 339.444 38.0586 340.02 37.2666C340.236 36.9786 340.356 36.7266 340.524 36.2466L339.036 35.9466C338.964 36.2466 338.904 36.3786 338.796 36.5466C338.496 36.9786 338.016 37.2186 337.416 37.2186C336.204 37.2186 335.46 36.2946 335.46 34.7946C335.46 33.3066 336.192 32.3826 337.368 32.3826C337.896 32.3826 338.316 32.5746 338.604 32.9346C338.76 33.1266 338.844 33.2946 338.976 33.6666L340.44 33.3186ZM342.492 29.5146C342.54 29.9466 342.576 30.4746 342.576 30.9906V31.3626H342.132C341.628 31.3626 341.4 31.3506 341.052 31.2906V32.7066C341.448 32.6466 341.676 32.6346 342.12 32.6346H342.576V36.6666C342.576 37.9266 343.128 38.4186 344.508 38.4186C345.132 38.4186 345.492 38.3586 346.008 38.1666L345.792 36.8946C345.42 37.0986 345.228 37.1586 344.916 37.1586C344.34 37.1586 344.124 36.9426 344.124 36.3546V32.6346H344.664C345.216 32.6346 345.444 32.6466 345.84 32.7066V31.2906C345.456 31.3506 345.192 31.3626 344.628 31.3626H344.124V30.9906C344.124 30.4506 344.16 29.9346 344.208 29.5146H342.492Z" fill="black"/>
<path d="M269.686 195.144C271.678 195.144 272.794 194.196 272.794 192.516C272.794 191.736 272.542 191.136 272.05 190.68C271.726 190.38 271.45 190.26 270.838 190.128C271.306 189.984 271.522 189.876 271.786 189.624C272.242 189.204 272.458 188.664 272.458 187.932C272.458 186.432 271.414 185.592 269.554 185.592H266.722C265.906 185.592 265.714 185.592 265.21 185.568C265.27 186.06 265.306 186.492 265.306 187.044V193.56C265.306 194.328 265.282 194.676 265.198 195.18C265.69 195.156 266.038 195.144 266.734 195.144H269.686ZM266.89 189.504V186.936H269.374C269.854 186.936 270.262 187.068 270.526 187.308C270.718 187.488 270.838 187.812 270.838 188.196C270.838 189.012 270.298 189.504 269.386 189.504H266.89ZM266.89 190.836H269.446C269.998 190.836 270.454 190.98 270.754 191.244C271.018 191.484 271.138 191.808 271.138 192.288C271.138 193.26 270.538 193.788 269.47 193.788H266.89V190.836ZM274.137 185.592V187.116H275.901V185.592H274.137ZM274.137 188.256C274.209 188.748 274.233 189.156 274.233 189.816V193.584C274.233 194.184 274.209 194.604 274.137 195.144H275.889C275.829 194.64 275.805 194.232 275.805 193.572V189.828C275.805 189.096 275.829 188.7 275.889 188.256H274.137ZM283.646 190.212C283.478 189.768 283.382 189.576 283.226 189.336C282.65 188.496 281.714 188.04 280.538 188.04C279.554 188.04 278.714 188.352 278.126 188.952C277.466 189.624 277.106 190.596 277.106 191.724C277.106 193.944 278.474 195.372 280.586 195.372C281.726 195.372 282.65 194.952 283.226 194.16C283.442 193.872 283.562 193.62 283.73 193.14L282.242 192.84C282.17 193.14 282.11 193.272 282.002 193.44C281.702 193.872 281.222 194.112 280.622 194.112C279.41 194.112 278.666 193.188 278.666 191.688C278.666 190.2 279.398 189.276 280.574 189.276C281.102 189.276 281.522 189.468 281.81 189.828C281.966 190.02 282.05 190.188 282.182 190.56L283.646 190.212ZM287.186 194.664L286.778 195.588C286.61 195.96 286.262 196.188 285.842 196.188C285.566 196.188 285.338 196.128 285.002 195.984L284.726 197.352C285.278 197.46 285.626 197.496 285.986 197.496C287.102 197.496 287.81 197.076 288.194 196.164L290.93 189.744C291.29 188.904 291.506 188.412 291.578 188.256H289.79C289.718 188.64 289.622 188.94 289.334 189.672L288.002 193.068L286.538 189.66C286.322 189.168 286.142 188.604 286.082 188.256H284.258C284.402 188.52 284.414 188.556 284.942 189.744L287.186 194.664ZM298.682 190.212C298.514 189.768 298.418 189.576 298.262 189.336C297.686 188.496 296.75 188.04 295.574 188.04C294.59 188.04 293.75 188.352 293.162 188.952C292.502 189.624 292.142 190.596 292.142 191.724C292.142 193.944 293.51 195.372 295.622 195.372C296.762 195.372 297.686 194.952 298.262 194.16C298.478 193.872 298.598 193.62 298.766 193.14L297.278 192.84C297.206 193.14 297.146 193.272 297.038 193.44C296.738 193.872 296.258 194.112 295.658 194.112C294.446 194.112 293.702 193.188 293.702 191.688C293.702 190.2 294.434 189.276 295.61 189.276C296.138 189.276 296.558 189.468 296.846 189.828C297.002 190.02 297.086 190.188 297.218 190.56L298.682 190.212ZM299.93 185.592C299.99 186.048 300.014 186.432 300.014 187.152V193.584C300.014 194.28 299.99 194.628 299.93 195.144H301.67C301.61 194.616 301.586 194.22 301.586 193.584V187.164C301.586 186.444 301.61 186.06 301.67 185.592H299.93ZM309.643 192.096C309.619 191.82 309.619 191.784 309.619 191.76C309.583 190.944 309.499 190.512 309.271 189.936C308.791 188.736 307.687 188.04 306.283 188.04C304.231 188.04 302.899 189.492 302.899 191.712C302.899 193.956 304.243 195.372 306.367 195.372C307.375 195.372 308.215 195.06 308.839 194.448C309.139 194.148 309.295 193.92 309.571 193.344L308.155 192.888C308.035 193.212 307.951 193.344 307.807 193.512C307.459 193.896 306.955 194.112 306.367 194.112C305.755 194.112 305.215 193.872 304.867 193.44C304.591 193.092 304.483 192.756 304.423 192.096H309.643ZM304.459 190.908C304.639 189.9 305.323 189.276 306.259 189.276C306.823 189.276 307.231 189.432 307.555 189.756C307.855 190.056 307.999 190.38 308.083 190.908H304.459ZM319.084 185.4C317.812 185.4 316.816 185.784 315.988 186.6C315.1 187.464 314.62 188.796 314.62 190.344C314.62 193.392 316.372 195.348 319.096 195.348C321.82 195.348 323.584 193.38 323.584 190.344C323.584 188.784 323.116 187.476 322.24 186.6C321.424 185.784 320.404 185.4 319.084 185.4ZM319.12 193.92C318.388 193.92 317.752 193.668 317.26 193.188C316.636 192.564 316.288 191.556 316.288 190.356C316.288 188.184 317.38 186.816 319.108 186.816C319.828 186.816 320.464 187.068 320.956 187.548C321.568 188.16 321.904 189.132 321.904 190.344C321.904 192.552 320.836 193.92 319.12 193.92ZM326.475 195.144V194.556C326.475 194.412 326.475 194.28 326.463 194.124C327.063 194.964 327.747 195.312 328.851 195.312C329.823 195.312 330.591 195.024 331.155 194.448C331.803 193.776 332.139 192.816 332.139 191.64C332.139 189.408 330.951 188.1 328.935 188.1C327.831 188.1 327.087 188.472 326.463 189.312C326.475 188.904 326.487 188.604 326.487 188.412V187.212C326.487 186.492 326.511 186.096 326.571 185.592H324.879C324.939 186.168 324.963 186.588 324.963 187.2V193.524C324.963 194.232 324.939 194.616 324.879 195.144H326.475ZM330.579 191.64C330.579 193.092 329.799 194.028 328.587 194.028C328.143 194.028 327.675 193.86 327.327 193.584C326.847 193.2 326.535 192.444 326.535 191.688C326.535 191.064 326.763 190.416 327.123 190.02C327.519 189.588 328.083 189.36 328.755 189.36C329.859 189.36 330.579 190.26 330.579 191.64ZM333.759 188.256C333.831 188.712 333.855 189.12 333.855 189.816V195.468C333.855 196.032 333.615 196.296 333.111 196.296C332.715 196.296 332.451 196.104 332.235 195.696L330.867 196.488C331.131 196.824 331.287 196.968 331.575 197.136C331.995 197.376 332.487 197.496 333.063 197.496C333.735 197.496 334.335 197.328 334.731 197.04C335.199 196.692 335.415 196.2 335.415 195.492V189.816C335.415 189.12 335.427 188.772 335.499 188.256H333.759ZM333.759 185.592V187.116H335.523V185.592H333.759ZM343.511 192.096C343.487 191.82 343.487 191.784 343.487 191.76C343.451 190.944 343.367 190.512 343.139 189.936C342.659 188.736 341.555 188.04 340.151 188.04C338.099 188.04 336.767 189.492 336.767 191.712C336.767 193.956 338.111 195.372 340.235 195.372C341.243 195.372 342.083 195.06 342.707 194.448C343.007 194.148 343.163 193.92 343.439 193.344L342.023 192.888C341.903 193.212 341.819 193.344 341.675 193.512C341.327 193.896 340.823 194.112 340.235 194.112C339.623 194.112 339.083 193.872 338.735 193.44C338.459 193.092 338.351 192.756 338.291 192.096H343.511ZM338.327 190.908C338.507 189.9 339.191 189.276 340.127 189.276C340.691 189.276 341.099 189.432 341.423 189.756C341.723 190.056 341.867 190.38 341.951 190.908H338.327ZM350.947 190.212C350.779 189.768 350.683 189.576 350.527 189.336C349.951 188.496 349.015 188.04 347.839 188.04C346.855 188.04 346.015 188.352 345.427 188.952C344.767 189.624 344.407 190.596 344.407 191.724C344.407 193.944 345.775 195.372 347.887 195.372C349.027 195.372 349.951 194.952 350.527 194.16C350.743 193.872 350.863 193.62 351.031 193.14L349.543 192.84C349.471 193.14 349.411 193.272 349.303 193.44C349.003 193.872 348.523 194.112 347.923 194.112C346.711 194.112 345.967 193.188 345.967 191.688C345.967 190.2 346.699 189.276 347.875 189.276C348.403 189.276 348.823 189.468 349.111 189.828C349.267 190.02 349.351 190.188 349.483 190.56L350.947 190.212ZM352.999 186.408C353.047 186.84 353.083 187.368 353.083 187.884V188.256H352.639C352.135 188.256 351.907 188.244 351.559 188.184V189.6C351.955 189.54 352.183 189.528 352.627 189.528H353.083V193.56C353.083 194.82 353.635 195.312 355.015 195.312C355.639 195.312 355.999 195.252 356.515 195.06L356.299 193.788C355.927 193.992 355.735 194.052 355.423 194.052C354.847 194.052 354.631 193.836 354.631 193.248V189.528H355.171C355.723 189.528 355.951 189.54 356.347 189.6V188.184C355.963 188.244 355.699 188.256 355.135 188.256H354.631V187.884C354.631 187.344 354.667 186.828 354.715 186.408H352.999Z" fill="black"/>
<path d="M157.17 195.245C159.162 195.245 160.278 194.297 160.278 192.617C160.278 191.837 160.026 191.237 159.534 190.781C159.21 190.481 158.934 190.361 158.322 190.229C158.79 190.085 159.006 189.977 159.27 189.725C159.726 189.305 159.942 188.765 159.942 188.033C159.942 186.533 158.898 185.693 157.038 185.693H154.206C153.39 185.693 153.198 185.693 152.694 185.669C152.754 186.161 152.79 186.593 152.79 187.145V193.661C152.79 194.429 152.766 194.777 152.682 195.281C153.174 195.257 153.522 195.245 154.218 195.245H157.17ZM154.374 189.605V187.037H156.858C157.338 187.037 157.746 187.169 158.01 187.409C158.202 187.589 158.322 187.913 158.322 188.297C158.322 189.113 157.782 189.605 156.87 189.605H154.374ZM154.374 190.937H156.93C157.482 190.937 157.938 191.081 158.238 191.345C158.502 191.585 158.622 191.909 158.622 192.389C158.622 193.361 158.022 193.889 156.954 193.889H154.374V190.937ZM161.621 185.693V187.217H163.385V185.693H161.621ZM161.621 188.357C161.693 188.849 161.717 189.257 161.717 189.917V193.685C161.717 194.285 161.693 194.705 161.621 195.245H163.373C163.313 194.741 163.289 194.333 163.289 193.673V189.929C163.289 189.197 163.313 188.801 163.373 188.357H161.621ZM171.131 190.313C170.963 189.869 170.867 189.677 170.711 189.437C170.135 188.597 169.199 188.141 168.023 188.141C167.039 188.141 166.199 188.453 165.611 189.053C164.951 189.725 164.591 190.697 164.591 191.825C164.591 194.045 165.959 195.473 168.071 195.473C169.211 195.473 170.135 195.053 170.711 194.261C170.927 193.973 171.047 193.721 171.215 193.241L169.727 192.941C169.655 193.241 169.595 193.373 169.487 193.541C169.187 193.973 168.707 194.213 168.107 194.213C166.895 194.213 166.151 193.289 166.151 191.789C166.151 190.301 166.883 189.377 168.059 189.377C168.587 189.377 169.007 189.569 169.295 189.929C169.451 190.121 169.535 190.289 169.667 190.661L171.131 190.313ZM174.671 194.765L174.263 195.689C174.095 196.061 173.747 196.289 173.327 196.289C173.051 196.289 172.823 196.229 172.487 196.085L172.211 197.453C172.763 197.561 173.111 197.597 173.471 197.597C174.587 197.597 175.295 197.177 175.679 196.265L178.415 189.845C178.775 189.005 178.991 188.513 179.063 188.357H177.275C177.203 188.741 177.107 189.041 176.819 189.773L175.487 193.169L174.023 189.761C173.807 189.269 173.627 188.705 173.567 188.357H171.743C171.887 188.621 171.899 188.657 172.427 189.845L174.671 194.765ZM186.166 190.313C185.998 189.869 185.902 189.677 185.746 189.437C185.17 188.597 184.234 188.141 183.058 188.141C182.074 188.141 181.234 188.453 180.646 189.053C179.986 189.725 179.626 190.697 179.626 191.825C179.626 194.045 180.994 195.473 183.106 195.473C184.246 195.473 185.17 195.053 185.746 194.261C185.962 193.973 186.082 193.721 186.25 193.241L184.762 192.941C184.69 193.241 184.63 193.373 184.522 193.541C184.222 193.973 183.742 194.213 183.142 194.213C181.93 194.213 181.186 193.289 181.186 191.789C181.186 190.301 181.918 189.377 183.094 189.377C183.622 189.377 184.042 189.569 184.33 189.929C184.486 190.121 184.57 190.289 184.702 190.661L186.166 190.313ZM187.414 185.693C187.474 186.149 187.498 186.533 187.498 187.253V193.685C187.498 194.381 187.474 194.729 187.414 195.245H189.154C189.094 194.717 189.07 194.321 189.07 193.685V187.265C189.07 186.545 189.094 186.161 189.154 185.693H187.414ZM197.128 192.197C197.104 191.921 197.104 191.885 197.104 191.861C197.068 191.045 196.984 190.613 196.756 190.037C196.276 188.837 195.172 188.141 193.768 188.141C191.716 188.141 190.384 189.593 190.384 191.813C190.384 194.057 191.728 195.473 193.852 195.473C194.86 195.473 195.7 195.161 196.324 194.549C196.624 194.249 196.78 194.021 197.056 193.445L195.64 192.989C195.52 193.313 195.436 193.445 195.292 193.613C194.944 193.997 194.44 194.213 193.852 194.213C193.24 194.213 192.7 193.973 192.352 193.541C192.076 193.193 191.968 192.857 191.908 192.197H197.128ZM191.944 191.009C192.124 190.001 192.808 189.377 193.744 189.377C194.308 189.377 194.716 189.533 195.04 189.857C195.34 190.157 195.484 190.481 195.568 191.009H191.944ZM208.86 192.029C208.764 192.581 208.668 192.833 208.464 193.133C208.08 193.697 207.36 194.021 206.52 194.021C204.84 194.021 203.784 192.653 203.784 190.457C203.784 188.249 204.816 186.917 206.52 186.917C207.264 186.917 207.864 187.169 208.272 187.661C208.512 187.937 208.62 188.165 208.788 188.693L210.456 188.309C210.312 187.853 210.228 187.637 210.084 187.385C209.784 186.857 209.352 186.413 208.812 186.077C208.152 185.681 207.444 185.501 206.508 185.501C205.308 185.501 204.228 185.909 203.508 186.641C202.608 187.541 202.104 188.933 202.104 190.517C202.104 192.053 202.572 193.409 203.412 194.285C204.144 195.041 205.188 195.437 206.496 195.437C207.936 195.437 209.088 194.969 209.772 194.129C210.132 193.661 210.348 193.193 210.576 192.329L208.86 192.029ZM211.824 185.693C211.884 186.149 211.908 186.533 211.908 187.253V193.685C211.908 194.381 211.884 194.729 211.824 195.245H213.564C213.504 194.717 213.48 194.321 213.48 193.685V187.265C213.48 186.545 213.504 186.161 213.564 185.693H211.824ZM219.642 195.245H221.262C221.19 194.705 221.166 194.381 221.166 193.745V190.517C221.166 189.701 221.01 189.245 220.602 188.861C220.086 188.357 219.39 188.153 218.238 188.153C217.206 188.153 216.534 188.333 215.946 188.765C215.49 189.089 215.274 189.401 214.998 190.097L216.534 190.373C216.678 189.941 216.786 189.773 217.014 189.605C217.29 189.389 217.782 189.257 218.262 189.257C219.174 189.257 219.642 189.617 219.642 190.313V190.925C217.926 190.961 217.038 191.081 216.258 191.405C215.43 191.753 214.902 192.509 214.902 193.349C214.902 194.609 215.79 195.365 217.254 195.365C217.638 195.365 218.022 195.317 218.37 195.221C218.862 195.089 219.162 194.921 219.642 194.465V195.245ZM219.642 192.569C219.642 192.989 219.498 193.337 219.21 193.625C218.802 194.021 218.178 194.261 217.542 194.261C216.87 194.261 216.45 193.913 216.45 193.349C216.45 192.413 217.35 192.017 219.642 191.969V192.569ZM222.387 193.289C222.531 193.829 222.639 194.069 222.855 194.357C223.371 195.053 224.295 195.425 225.531 195.425C226.623 195.425 227.463 195.161 228.015 194.645C228.375 194.309 228.603 193.781 228.603 193.289C228.603 192.629 228.375 192.137 227.907 191.801C227.511 191.501 227.019 191.333 225.795 191.069C225.111 190.913 224.859 190.841 224.595 190.709C224.355 190.577 224.223 190.373 224.223 190.145C224.223 189.641 224.727 189.305 225.471 189.305C226.251 189.305 226.659 189.593 226.791 190.253L228.375 190.049C228.207 189.461 228.039 189.161 227.727 188.861C227.235 188.405 226.455 188.165 225.471 188.165C224.379 188.165 223.563 188.477 223.071 189.101C222.831 189.401 222.699 189.797 222.699 190.217C222.699 190.913 223.071 191.489 223.755 191.813C224.163 192.005 224.535 192.125 225.483 192.329C226.443 192.545 226.515 192.557 226.743 192.713C226.935 192.845 227.055 193.073 227.055 193.313C227.055 193.877 226.503 194.225 225.615 194.225C224.679 194.225 224.235 193.901 224.031 193.085L222.387 193.289ZM229.501 193.289C229.645 193.829 229.753 194.069 229.969 194.357C230.485 195.053 231.409 195.425 232.645 195.425C233.737 195.425 234.577 195.161 235.129 194.645C235.489 194.309 235.717 193.781 235.717 193.289C235.717 192.629 235.489 192.137 235.021 191.801C234.625 191.501 234.133 191.333 232.909 191.069C232.225 190.913 231.973 190.841 231.709 190.709C231.469 190.577 231.337 190.373 231.337 190.145C231.337 189.641 231.841 189.305 232.585 189.305C233.365 189.305 233.773 189.593 233.905 190.253L235.489 190.049C235.321 189.461 235.153 189.161 234.841 188.861C234.349 188.405 233.569 188.165 232.585 188.165C231.493 188.165 230.677 188.477 230.185 189.101C229.945 189.401 229.813 189.797 229.813 190.217C229.813 190.913 230.185 191.489 230.869 191.813C231.277 192.005 231.649 192.125 232.597 192.329C233.557 192.545 233.629 192.557 233.857 192.713C234.049 192.845 234.169 193.073 234.169 193.313C234.169 193.877 233.617 194.225 232.729 194.225C231.793 194.225 231.349 193.901 231.145 193.085L229.501 193.289Z" fill="black"/>
<rect x="151.5" y="49.1066" width="86" height="86" rx="2.86667" fill="#C6D2E5"/>
<rect x="156.278" y="53.8845" width="76.4445" height="76.4445" stroke="#ACBEDB"/>
<rect x="156.278" y="53.8845" width="76.4445" height="9.55556" stroke="#ACBEDB" stroke-width="0.5"/>
<rect x="156.278" y="63.44" width="76.4445" height="9.55556" stroke="#ACBEDB" stroke-width="0.5"/>
<rect x="156.278" y="72.9952" width="76.4445" height="9.55556" stroke="#ACBEDB" stroke-width="0.5"/>
<rect x="156.278" y="82.5508" width="76.4445" height="9.55556" stroke="#ACBEDB" stroke-width="0.5"/>
<rect x="156.278" y="92.1065" width="76.4445" height="9.55556" stroke="#ACBEDB" stroke-width="0.5"/>
<rect x="156.278" y="101.662" width="76.4445" height="9.55556" stroke="#ACBEDB" stroke-width="0.5"/>
<rect x="156.278" y="111.218" width="76.4445" height="9.55556" stroke="#ACBEDB" stroke-width="0.5"/>
<rect x="223.166" y="53.8843" width="9.55556" height="76.4445" stroke="#ACBEDB" stroke-width="0.5"/>
<rect x="213.611" y="53.8843" width="9.55556" height="76.4445" stroke="#ACBEDB" stroke-width="0.5"/>
<rect x="204.055" y="53.8843" width="9.55556" height="76.4445" stroke="#ACBEDB" stroke-width="0.5"/>
<rect x="194.5" y="53.8843" width="9.55556" height="76.4445" stroke="#ACBEDB" stroke-width="0.5"/>
<rect x="184.944" y="53.8843" width="9.55556" height="76.4445" stroke="#ACBEDB" stroke-width="0.5"/>
<rect x="175.389" y="53.8843" width="9.55556" height="76.4445" stroke="#ACBEDB" stroke-width="0.5"/>
<rect x="165.833" y="53.8843" width="9.55556" height="76.4445" stroke="#ACBEDB" stroke-width="0.5"/>
<path d="M163.564 95.4637L163.168 95.1574L163.564 95.4637ZM204.748 78.973L204.748 79.473H204.748V78.973ZM177.254 91.0311L177.752 91.0769L177.254 91.0311ZM176.252 91.9866L176.254 92.4866L176.252 91.9866ZM219.656 92.0041L219.635 92.5036L219.656 92.0041ZM218.662 91.029L218.163 91.0644L218.662 91.029ZM226.991 107.136L227.491 107.135L226.991 107.136ZM176.61 108.594H212.218V107.594H176.61V108.594ZM212.218 108.594H226.036V107.594H212.218V108.594ZM227.491 107.135C227.49 104.375 227.477 102.048 227.345 100.114C227.213 98.1843 226.961 96.6038 226.461 95.3486C225.954 94.0761 225.19 93.133 224.054 92.5004C222.934 91.8775 221.495 91.5793 219.676 91.5045L219.635 92.5036C221.383 92.5755 222.643 92.86 223.567 93.3742C224.474 93.8786 225.097 94.6269 225.532 95.7186C225.974 96.8277 226.217 98.2841 226.347 100.182C226.476 102.076 226.49 104.369 226.491 107.136L227.491 107.135ZM190.036 78.473C186.72 78.473 183.547 80.0211 181.14 82.3369C178.733 84.6522 177.051 87.7737 176.756 90.9854L177.752 91.0769C178.021 88.1422 179.57 85.2346 181.833 83.0575C184.096 80.8809 187.031 79.473 190.036 79.473V78.473ZM176.251 91.4866C173.092 91.4967 170.48 91.5722 168.344 92.0569C166.186 92.5468 164.484 93.461 163.168 95.1574L163.959 95.77C165.1 94.2979 166.577 93.4836 168.566 93.0321C170.578 92.5755 173.082 92.4967 176.254 92.4866L176.251 91.4866ZM163.168 95.1574C161.72 97.0255 161.081 99.2594 160.808 101.393C160.536 103.524 160.625 105.6 160.664 107.153L161.664 107.127C161.624 105.549 161.539 103.559 161.8 101.52C162.06 99.4838 162.66 97.4449 163.959 95.77L163.168 95.1574ZM162.135 108.594H176.61V107.594H162.135V108.594ZM219.161 90.9936C218.621 83.3976 211.956 78.473 204.748 78.473V79.473C211.54 79.473 217.668 84.094 218.163 91.0644L219.161 90.9936ZM204.748 78.473C199.408 78.4727 192.435 78.473 190.036 78.473V79.473C192.435 79.473 199.408 79.4727 204.748 79.473L204.748 78.473ZM176.756 90.9854C176.729 91.2804 176.495 91.4859 176.251 91.4866L176.254 92.4866C177.065 92.484 177.682 91.833 177.752 91.0769L176.756 90.9854ZM219.676 91.5045C219.41 91.4935 219.181 91.2729 219.161 90.9936L218.163 91.0644C218.218 91.8378 218.847 92.4712 219.635 92.5036L219.676 91.5045ZM160.664 107.153C160.684 107.946 161.33 108.594 162.135 108.594V107.594C161.884 107.594 161.67 107.389 161.664 107.127L160.664 107.153ZM226.036 108.594C226.842 108.594 227.492 107.938 227.491 107.135L226.491 107.136C226.491 107.389 226.285 107.594 226.036 107.594V108.594Z" fill="#003180"/>
<path d="M196.528 92.1063H181.196C181.031 92.1063 180.896 91.9727 180.903 91.8072C181.096 87.6484 185.249 82.3494 190.202 82.3494C195.047 82.3494 194.501 82.3495 196.526 82.3496C196.692 82.3496 196.828 82.4839 196.828 82.6496V91.8063C196.828 91.972 196.694 92.1063 196.528 92.1063Z" stroke="#003180"/>
<path d="M200.594 92.1063H214.925C215.091 92.1063 215.226 91.9727 215.218 91.8072C215.025 87.6484 210.873 82.3494 205.92 82.3494C201.08 82.3494 202.53 82.3495 200.596 82.3496C200.431 82.3496 200.294 82.4839 200.294 82.6496V91.8063C200.294 91.972 200.428 92.1063 200.594 92.1063Z" stroke="#003180"/>
<circle cx="170.584" cy="106.468" r="3.25" fill="#C6D2E5" stroke="#003180" stroke-width="3"/>
<circle cx="218.361" cy="106.468" r="3.25" fill="#C6D2E5" stroke="#003180" stroke-width="3"/>
<rect x="151.5" y="206.079" width="86" height="86" rx="2.86667" fill="#C6D2E5"/>
<rect x="156.278" y="210.857" width="76.4445" height="76.4445" stroke="#ACBEDB"/>
<rect x="156.278" y="210.857" width="76.4445" height="9.55556" stroke="#ACBEDB" stroke-width="0.5"/>
<rect x="156.278" y="220.413" width="76.4445" height="9.55556" stroke="#ACBEDB" stroke-width="0.5"/>
<rect x="156.278" y="229.968" width="76.4445" height="9.55556" stroke="#ACBEDB" stroke-width="0.5"/>
<rect x="156.278" y="239.524" width="76.4445" height="9.55556" stroke="#ACBEDB" stroke-width="0.5"/>
<rect x="156.278" y="249.079" width="76.4445" height="9.55556" stroke="#ACBEDB" stroke-width="0.5"/>
<rect x="156.278" y="258.635" width="76.4445" height="9.55556" stroke="#ACBEDB" stroke-width="0.5"/>
<rect x="156.278" y="268.191" width="76.4445" height="9.55556" stroke="#ACBEDB" stroke-width="0.5"/>
<rect x="223.167" y="210.857" width="9.55556" height="76.4445" stroke="#ACBEDB" stroke-width="0.5"/>
<rect x="213.611" y="210.857" width="9.55556" height="76.4445" stroke="#ACBEDB" stroke-width="0.5"/>
<rect x="204.055" y="210.857" width="9.55556" height="76.4445" stroke="#ACBEDB" stroke-width="0.5"/>
<rect x="194.5" y="210.857" width="9.55556" height="76.4445" stroke="#ACBEDB" stroke-width="0.5"/>
<rect x="184.944" y="210.857" width="9.55556" height="76.4445" stroke="#ACBEDB" stroke-width="0.5"/>
<rect x="175.389" y="210.857" width="9.55556" height="76.4445" stroke="#ACBEDB" stroke-width="0.5"/>
<rect x="165.833" y="210.857" width="9.55556" height="76.4445" stroke="#ACBEDB" stroke-width="0.5"/>
<path d="M193.809 229.968H185.89C185.482 229.968 185.119 230.227 184.987 230.613L175.31 258.719" stroke="#003180" stroke-linecap="round"/>
<path d="M194.626 258.635H213.195C213.927 258.635 214.387 257.847 214.028 257.21L204.291 239.935C204.122 239.635 203.804 239.449 203.459 239.449H183.207C182.437 239.449 181.983 240.313 182.42 240.947L194.626 258.635ZM194.626 258.635L206.086 234.746" stroke="#003180" stroke-linecap="round"/>
<circle cx="175.653" cy="258.635" r="9.55556" stroke="#003180" stroke-width="2" stroke-linecap="round"/>
<circle cx="213.875" cy="258.635" r="9.55556" stroke="#003180" stroke-width="2" stroke-linecap="round"/>
<rect x="204.556" y="233.62" width="8.55556" height="2" rx="1" fill="#003180" stroke="#003180"/>
<circle cx="292.775" cy="231.627" r="12.4216" fill="#BF73A6"/>
<circle cx="292.775" cy="231.628" r="10.7054" fill="#FFF2FB"/>
<circle cx="329.921" cy="231.627" r="12.4216" fill="#BF73A6"/>
<circle cx="329.921" cy="231.628" r="10.7054" fill="#FFF2FB"/>
<path fill-rule="evenodd" clip-rule="evenodd" d="M320.689 209.002C320.82 208.69 321.053 208.407 321.811 208.62C322.393 208.783 322.601 209.31 322.501 209.51L319.259 219.128C319.258 219.131 319.262 219.133 319.264 219.13C319.265 219.129 319.267 219.128 319.268 219.13L330.387 230.971C330.392 230.977 330.398 230.983 330.404 230.987C330.587 231.13 330.896 231.472 330.737 231.761C330.535 232.129 330.198 232.306 329.777 232.32C329.383 232.334 317.536 233.592 316.022 233.753C315.936 233.762 315.863 233.695 315.863 233.608V232.453C315.863 232.378 315.92 232.315 315.995 232.308L327.741 231.249C327.827 231.232 328.019 231.155 328.096 230.98C328.169 230.814 328.088 230.605 328.032 230.509C328.027 230.5 328.02 230.492 328.013 230.484L318.8 221.148C318.724 221.071 318.594 221.101 318.559 221.203L314.889 232.091C314.862 232.17 314.774 232.211 314.696 232.178L313.286 231.591C313.216 231.562 313.181 231.483 313.205 231.411L316.94 220.226C316.968 220.144 316.918 220.057 316.834 220.039L300.152 216.344C300.085 216.329 300.017 216.363 299.989 216.426C299.94 216.536 299.89 216.648 299.839 216.762C299.815 216.814 299.825 216.876 299.864 216.918L312.423 230.646C312.486 230.715 312.468 230.825 312.387 230.87L311.133 231.569C311.074 231.602 310.999 231.59 310.954 231.539L299.311 218.443C299.241 218.364 299.114 218.383 299.071 218.479C297.111 222.859 294.477 228.724 293.053 231.851C293.048 231.862 293.043 231.871 293.036 231.879C292.888 232.058 292.54 232.241 292.282 232.112C292.023 231.983 291.951 231.312 291.987 231.076C291.988 231.065 291.992 231.055 291.996 231.045L300.083 212.44L300.087 212.432C300.221 212.184 300.489 211.691 300.984 211.862C301.609 212.079 301.767 212.383 301.551 212.912C301.513 213.005 301.2 213.71 300.71 214.81C300.672 214.895 300.722 214.993 300.813 215.012L317.399 218.45C317.471 218.464 317.542 218.423 317.566 218.354L320.689 209.002Z" fill="#F29DD6"/>
<circle cx="313.256" cy="234.206" r="4.00558" fill="#F29DD6"/>
<path d="M319.381 207.118C317.822 207.214 315.27 206.963 315.273 207.823C315.276 208.683 316.732 208.653 317.754 208.735C318.776 208.817 320.91 209.189 321.82 209.408C322.729 209.628 323.951 210.338 325.718 209.408C327.758 208.335 328.414 207.022 326.846 206.478C325.277 205.934 320.939 207.022 319.381 207.118Z" fill="#BF73A6"/>
<path d="M301.764 212.265C301.985 211.529 300.829 211.309 300.198 211.182C297.802 210.703 293.94 209.724 292.742 212.566C291.845 214.698 293.008 216.801 295.28 217.171C295.873 217.268 296.372 217.12 296.506 216.764C296.658 216.362 296.512 215.798 296.044 215.763C294.285 215.633 293.292 213.631 295.101 212.566C296.671 211.643 298.79 212.843 300.419 212.895C300.745 212.906 301.543 213 301.764 212.265Z" fill="#BF73A6"/>
<circle cx="292.438" cy="231.628" r="1.12799" fill="#F29DD6"/>
<circle cx="329.547" cy="231.627" r="2.08217" fill="#F29DD6"/>
<path d="M266.034 68.7541L265.139 71.7641C265.086 71.9411 265.27 72.0955 265.435 72.013L271.371 69.045C271.63 68.9155 271.63 68.5457 271.371 68.4161L265.439 65.45C265.273 65.3672 265.089 65.5228 265.143 65.7L266.034 68.6327C266.046 68.6722 266.046 68.7145 266.034 68.7541Z" fill="#ACBEDB"/>
<path d="M266.034 225.483L265.139 228.493C265.086 228.67 265.27 228.824 265.435 228.741L271.371 225.774C271.63 225.644 271.63 225.274 271.371 225.145L265.439 222.179C265.273 222.096 265.089 222.251 265.143 222.428L266.034 225.361C266.046 225.401 266.046 225.443 266.034 225.483Z" fill="#ACBEDB"/>
<path d="M142.534 92.1301L141.639 95.1401C141.586 95.3171 141.77 95.4715 141.935 95.3889L147.871 92.421C148.13 92.2915 148.13 91.9217 147.871 91.7921L141.939 88.826C141.773 88.7431 141.589 88.8987 141.643 89.076L142.534 92.0086C142.546 92.0482 142.546 92.0905 142.534 92.1301Z" fill="#ACBEDB"/>
<path d="M142.534 249.13L141.639 252.14C141.586 252.317 141.77 252.471 141.935 252.389L147.871 249.421C148.13 249.291 148.13 248.922 147.871 248.792L141.939 245.826C141.773 245.743 141.589 245.899 141.643 246.076L142.534 249.009C142.546 249.048 142.546 249.09 142.534 249.13Z" fill="#ACBEDB"/>
<path d="M266.034 116.506L265.139 119.516C265.086 119.693 265.27 119.847 265.436 119.765L271.371 116.797C271.63 116.667 271.63 116.297 271.371 116.168L265.439 113.202C265.273 113.119 265.089 113.274 265.143 113.452L266.034 116.384C266.046 116.424 266.046 116.466 266.034 116.506Z" fill="#ACBEDB"/>
<path d="M266.034 272.992L265.139 276.002C265.086 276.179 265.27 276.333 265.436 276.251L271.371 273.283C271.63 273.153 271.63 272.783 271.371 272.654L265.439 269.688C265.273 269.605 265.089 269.761 265.143 269.938L266.034 272.87C266.046 272.91 266.046 272.952 266.034 272.992Z" fill="#ACBEDB"/>
<path d="M114 171.106H128.684V95.0381C128.684 93.419 129.997 92.1066 131.616 92.1066H144" stroke="#ACBEDB" stroke-width="1.5"/>
<path d="M237.5 92.2021H252.184V71.6621C252.184 70.0431 253.497 68.7306 255.116 68.7306H267.5" stroke="#ACBEDB" stroke-width="1.5"/>
<path d="M237.5 248.745H252.184V228.205C252.184 226.586 253.497 225.274 255.116 225.274H267.5" stroke="#ACBEDB" stroke-width="1.5"/>
<path d="M114 171.107H128.684V246.147C128.684 247.766 129.997 249.078 131.616 249.078H144" stroke="#ACBEDB" stroke-width="1.5"/>
<path d="M237.5 92.2016H252.184V113.551C252.184 115.17 253.497 116.483 255.116 116.483H267.5" stroke="#ACBEDB" stroke-width="1.5"/>
<path d="M237.5 248.745H252.184V270.094C252.184 271.713 253.497 273.026 255.116 273.026H267.5" stroke="#ACBEDB" stroke-width="1.5"/>
<path d="M327.086 77.7501H297.561H285.95C283.524 77.6595 278.544 77.4783 278.039 77.4783C276.146 77.4783 276.146 75.7814 276.146 75.7814V71.6051C276.146 69.4694 280.903 67.5764 285.028 65.829C289.154 64.0816 294.445 64.3243 296.338 64.0816C297.212 63.7419 301.677 61.6547 303.327 61.0237C304.978 60.3927 310.608 58.1599 315.074 58.1599C324.005 58.1599 328.762 60.2956 331.48 61.3149C334.198 62.3342 345.265 66.46 346.042 66.9454C346.818 67.4309 347.643 68.7413 347.692 69.3723C347.808 70.8773 347.83 71.775 347.83 72.879C347.83 73.983 347.692 75.0956 347.225 75.6489C346.759 76.2022 338.775 76.8299 338.775 76.8299C336.872 77.1367 331.869 77.7501 327.086 77.7501Z" fill="#7DA6F7"/>
<circle cx="291.144" cy="73.3296" r="5.79918" fill="#527ACC"/>
<circle cx="332.188" cy="73.3296" r="5.79918" fill="#527ACC"/>
<path fill-rule="evenodd" clip-rule="evenodd" d="M320.719 65.9231H322.451C323.804 65.9231 328.904 65.046 331.285 64.6075L331.059 63.3294C329.124 62.6532 325.793 61.6501 322.335 60.9358C321.839 62.5077 321.142 64.6887 320.719 65.9231ZM319.562 60.4374C317.485 60.1253 315.485 59.9789 313.843 60.1343C308.761 60.6155 304.634 64.194 303.205 65.9231H317.533L319.562 60.4374Z" fill="#E4EDFF"/>
<circle cx="291.144" cy="73.33" r="3.8664" fill="#E4EDFF"/>
<circle cx="332.188" cy="73.33" r="3.8664" fill="#E4EDFF"/>
<path d="M288.04 113.55C285.072 114.033 278.342 115.402 277.271 116.76C276.201 118.117 276.147 124.646 276.147 125.474C276.147 126.509 276.064 129.406 277.271 129.406H314.227C323.43 129.406 344.745 129.924 345.78 129.406C346.816 128.889 346.543 119.659 346.439 114.896C346.336 110.133 346.439 102.196 344.665 100.477C342.317 98.2005 334.493 98.5865 320.826 98.5865C307.158 98.5865 302.018 98.95 298.912 99.8819C296.427 100.627 290.628 109.304 288.04 113.55Z" fill="#70E0BB"/>
<circle cx="284.846" cy="127.698" r="5.73011" fill="#31A07B"/>
<circle cx="338.186" cy="127.698" r="5.73011" fill="#31A07B"/>
<path d="M310.305 113.75L311.047 103.194C305.693 103.194 300.838 102.977 299.183 104.064C297.527 104.907 293.553 110.491 293.174 111.612C292.366 112.42 292.638 113.75 293.174 113.75L310.305 113.75Z" fill="#E7FFF7"/>
<path d="M313.435 113.729L314.02 103.246C322.599 103.225 337.856 103.246 339.073 103.246C340.801 103.246 340.801 105.63 340.801 108.339C340.801 111.048 340.801 113.729 339.073 113.729C338.375 113.799 321.613 113.873 313.435 113.729Z" fill="#E7FFF7"/>
<path d="M288.381 127.698C288.381 129.651 286.798 131.233 284.846 131.233C282.893 131.233 281.311 129.651 281.311 127.698C281.311 125.746 282.893 124.163 284.846 124.163C286.798 124.163 288.381 125.746 288.381 127.698Z" fill="#E7FFF7"/>
<circle cx="338.186" cy="127.698" r="3.53509" fill="#E7FFF7"/>
<circle cx="291.701" cy="281.096" r="11.774" fill="#D97D21"/>
<circle cx="330.994" cy="281.096" r="11.774" fill="#D97D21"/>
<circle cx="291.701" cy="281.096" r="10.1501" fill="#FFF2E6"/>
<circle cx="330.994" cy="281.096" r="10.1501" fill="#FFF2E6"/>
<path d="M299.853 262.341L318.052 274.186" stroke="#FFAC59" stroke-width="1.2594"/>
<path d="M297.915 266.918L315.629 282.694" stroke="#FFAC59" stroke-width="1.2594"/>
<path d="M321.336 266.434L331.575 280.686C331.969 281.235 331.587 282 330.913 282.016L315.791 282.371" stroke="#FFAC59" stroke-width="1.2594"/>
<path d="M323.085 259.972L315.644 282.717" stroke="#FFAC59" stroke-width="1.2594"/>
<path d="M301.548 257.388L291.454 281.402" stroke="#FFAC59" stroke-width="1.2594"/>
<circle r="1.29292" transform="matrix(1 0 0 -1 291.701 281.096)" fill="#FFAC59"/>
<circle cx="330.994" cy="281.096" r="2.43127" fill="#FFAC59"/>
<circle cx="315.621" cy="282.751" r="3.59966" fill="#FFAC59"/>
<path d="M318.335 259.416C318.684 259.427 320.028 259.589 321.471 259.952C322.913 260.315 323.592 261.263 325.374 261.263C326.388 261.263 327.419 261.068 328.357 260.681C328.564 260.596 328.916 260.322 328.924 259.58C328.935 258.653 327.5 258.599 327.009 258.588C326.518 258.577 323.554 258.58 322.417 258.386C321.28 258.192 320.131 257.804 319 257.824C317.87 257.844 317.528 258.239 317.386 258.424C317.245 258.609 317.005 259.111 317.223 259.296C317.441 259.481 317.986 259.405 318.335 259.416Z" fill="#D97D21"/>
<path d="M302.053 256.688C303.111 256.688 303.15 258.244 301.797 258.244C300.445 258.244 298.87 258.237 297.626 257.683C296.567 257.211 296.321 256.34 296.298 255.593C296.24 253.689 298.321 252.768 300.245 253.153C300.755 253.255 304.226 254.023 304.939 254.227C305.652 254.431 306.171 254.722 306.005 255.414C305.877 255.947 305.117 256.015 304.692 255.93C303.155 255.565 300.245 254.891 299.722 254.754C299.134 254.599 297.882 254.818 298.116 255.85C298.337 256.826 300.994 256.688 302.053 256.688Z" fill="#D97D21"/>
<path d="M297.948 260.095L287.567 257.315C287.317 257.248 287.067 257.421 287.041 257.678L286.329 264.63C286.308 264.834 286.438 265.023 286.635 265.077L295.026 267.396C295.23 267.453 295.444 267.349 295.526 267.153L298.227 260.662C298.324 260.428 298.193 260.161 297.948 260.095Z" fill="#FFAC59"/>
</svg>
